<?xml version="1.0" encoding="UTF-8"?>
<svg width="1312px" height="702px" viewBox="0 0 1312 702" version="1.1" xmlns="http://www.w3.org/2000/svg" xmlns:xlink="http://www.w3.org/1999/xlink" style="background: #FFFFFF;">
    <!-- Generator: Sketch 48.2 (47327) - http://www.bohemiancoding.com/sketch -->
    <title>infobg</title>
    <desc>Created with Sketch.</desc>
    <defs></defs>
    <g id="Page-1" stroke="none" stroke-width="1" fill="none" fill-rule="evenodd">
        <g id="infobg">
            <rect id="Rectangle" fill="#00168E" x="0" y="-4" width="1312" height="706"></rect>
            <g id="Group-9" transform="translate(0.000000, 7.000000)">
                <polygon id="Rectangle-52" fill="#FFFFFF" points="1152.43744 496 1183.83711 517.649111 1186.06156 500.92588 1197.37471 498.995167 1236 564.143797 1208.66911 617 1186.06156 617 1145.88682 584.874618 1142.41123 590.872145 1089.84776 602.839482 1094.73985 579.050773 1085 575.002535 1085 545.314226"></polygon>
                <polygon id="Rectangle-51" fill="#FFFFFF" points="1149 454 1211.49512 470.610123 1217 494 1149 477.819594"></polygon>
                <polygon id="Rectangle-50" fill="#FFFFFF" points="1121.60889 445 1133 449.491319 1121.5 475 1110 473.260984"></polygon>
                <polygon id="Rectangle-40" fill="#FFFFFF" points="660.578308 191 670.019071 208.099246 681.026725 218.21284 682 234 659.205267 234 665.551258 219.63551 651 202.359857"></polygon>
                <polygon id="Rectangle-39" fill="#FFFFFF" points="634 225.879795 644.806521 210 656 225.879795 644.806521 237"></polygon>
                <polygon id="Rectangle-38" fill="#FFFFFF" points="593 148.629939 624.5752 140 639 154.805563 610.73434 178"></polygon>
                <polygon id="Rectangle-36" fill="#FFFFFF" points="420.896423 369 465 389.45348 457.233628 394 417 377.22917"></polygon>
                <polygon id="Rectangle-32" fill="#FFFFFF" points="212.697711 544 227 556 216.207342 568 203 555.20433"></polygon>
                <polygon id="Rectangle-28" fill="#FFFFFF" points="0 118 62.7582767 145.251573 71 158.844107 23.3732862 158.844107 14.5958662 164.216699 27.00925 175.989938 0 185"></polygon>
                <polygon id="Rectangle-29" fill="#FFFFFF" points="22 324 49 334.668411 31.7289037 349"></polygon>
                <polygon id="Rectangle-30" fill="#FFFFFF" points="63.7870096 348 102.533962 365.660791 117.857436 356.229915 138 375.368019 129.594782 388 108.933634 372.022691 94.7861331 380.413555 61 357.23213"></polygon>
                <polygon id="Rectangle-31" fill="#FFFFFF" points="186.964065 522 202 540.214629 189.658623 548 176 533.956583"></polygon>
                <polygon id="Rectangle-33" fill="#FFFFFF" points="105.902294 107.764219 255.855718 126.072448 228.887528 106.087764 235.417097 76.1143865 381.270905 12 447.293799 14.5431541 395.163198 80.361338 462.588912 138.221377 440.387009 166.697931 398.445274 159.123921 404.526638 130.812264 387.407036 128.618537 382.102245 149.784766 387.407036 163.355023 355.665913 163.355023 341.755801 186.438702 351.691502 199.675687 376.178835 204.01936 391.280131 227.154358 398.445274 199.675687 396.219125 173.017563 447.293799 180.792473 484.441937 232.446629 431.348118 266.525846 434.345741 284.569736 421.069483 284.569736 412.533788 293.27988 414.835024 306.237851 391.280131 327.629525 398.445274 349.102505 384.987334 352.219716 377.693645 335.310933 341.755801 335.310933 331.705165 360.674069 343.981593 373.703743 360.008787 364.97755 368.123302 370.101877 368.123302 376.679978 363.666536 390.292251 377.693645 390.292251 382.102245 409.189029 402.095124 409.189029 425.365952 400.512446 434.345741 406.629652 469.870006 409.189029 471.530688 428.807174 496.119514 430.460976 498.397376 454.09911 516.56464 454.09911 556 483.426426 543.17469 500.344407 542.066201 527.636215 445.478165 639.551681 447.293799 649.060438 448.92467 662.195002 436.588687 675.282524 447.293799 691.372146 436.588687 704 412.533788 675.282524 412.533788 616.075923 428.310133 527.636215 408.369113 517.559645 384.987334 457.588094 396.219125 442.218508 395.163198 424.726721 373.942905 424.726721 363.666536 403.692312 351.691502 406.629652 304.543293 376.679978 293.319567 360.674069 276.197663 360.674069 228.887528 293.27988 231.715329 259.027774 214.329753 232.446629 203.690235 235.113685 196.853468 219.406888 205.557008 219.406888 181.900332 193.570436 151.153227 188.582808 76.802926 227.154358 101.884382 199.675687 82.0790087 183.86318 76 128.618537"></polygon>
                <polygon id="Rectangle-34" fill="#FFFFFF" points="407.916371 340 418 356 406 352.04158"></polygon>
                <polygon id="Rectangle-35" fill="#FFFFFF" points="383.708579 357 409 364.66654 406.745656 375 382 369.510126"></polygon>
                <polygon id="Rectangle-37" fill="#FFFFFF" points="457.609922 17.2525893 597.387133 4.54747351e-13 632 30.1796697 615.178079 49.566889 613.155386 89.3218766 583.493136 140.423195 540.313759 153.516392 526.862482 182 506.301022 182 480.713408 139.277933 474.123138 91 453.61867 73.5355544 434.480202 82.8625022 424 65.2752495"></polygon>
                <polygon id="Rectangle-41" fill="#FFFFFF" points="732.236952 122.584457 770.868003 111.573078 831.407614 126.476217 822.505437 145.604 799.607747 145.604 813.27355 159.09449 859.046606 126.476217 887.539067 128.690462 869.071377 102.456439 891.007414 78.1289257 923.771531 63 928.70444 72.3161671 896.32397 86.9976063 881.364866 106.071719 914.706551 130.39695 910.600685 118.544265 932.816595 97.47701 970.101673 108.844538 975.893072 96.269253 1046.83535 63 1094.05123 78.1289257 1063.2368 99.4827085 1172.21153 111.573078 1190.24296 89.6288727 1199.71884 111.573078 1254.14541 115.269165 1268.99445 124.750857 1312 118.544265 1312 182.880726 1268.99445 189.087318 1270.12024 205.12834 1244.81215 243.650361 1238.38808 205.12834 1250.34932 189.087318 1199.71884 195.165819 1172.21153 210.487633 1172.21153 224.306796 1190.24296 220.381305 1192.6735 249.791486 1177.68 252.612423 1173.79529 269.942665 1146.04804 288.731506 1149.58068 302.397304 1131.77965 315.335435 1122.981 291.632388 1112.91493 298.643125 1115.40635 347.94507 1063.2368 381.858308 1076.03344 402.31948 1054.74322 417.194964 1043.11457 397.889843 1038.19764 402.31948 1043.11457 422.689285 1061.20474 432.439382 1054.74322 442.564734 1043.11457 439.72585 1046.83535 449.123533 1056.95299 449.123533 1063.2368 469.834331 1094.05123 481.251864 1094.05123 492.070621 1060.94918 487.278275 1015.72537 432.439382 1032.8762 430.553319 1006.42485 372.098422 1006.42485 353.21332 998.05168 353.21332 998.05168 367.781361 970.101673 390.410853 970.101673 412.032051 949.478624 418.909002 936.103131 377.50209 928.70444 377.50209 928.70444 353.21332 856.432952 340.309452 865.715496 359.721542 879.261779 353.21332 893.440281 370.399987 881.364866 390.410853 845.544389 402.31948 810.794774 332.533522 801.59313 332.533522 801.59313 344.429097 822.505437 394.556602 841.701632 409.614106 869.071377 407.626887 820.332004 483.111822 827.040725 494.279729 827.040725 518.289506 813.27355 529.928928 810.794774 548.853187 775.571743 597 744.194465 597 716.225482 514.693586 726.158224 504.237032 726.158224 483.111822 703.690452 455.538758 712.231411 449.123533 691.95843 432.439382 646.747225 432.439382 621 407.626887 621 353.21332 676.072035 302.397304 707.907747 298.643125 716.225482 309.192678 716.225482 317.223129 742.198928 324.1425 750.943636 312.835912 762.871916 321.778395 796.162332 324.1425 803.226114 315.335435 803.226114 298.643125 785.741193 317.223129 770.868003 291.632388 772.890052 317.223129 754.037318 304.113687 750.943636 282.691537 732.236952 257.8562 726.158224 262.065579 744.194465 284.63144 732.236952 305.794175 729.744798 282.691537 707.907747 269.942665 698.115831 278.663259 691.95843 275.535592 656.272225 310.896008 643.249042 272.357348 669.564067 275.535592 673.285474 260.146885 662.587177 252.612423 680.716304 237.967699 689.173367 237.967699 707.907747 218.578451 701.655962 207.5117 712.231411 201.533729 718.650989 210.487633 750.943636 210.487633 748.783302 199.81082 783.329169 186.644274 780.109642 178.856922 755.93248 186.644274 748.783302 172.329122 765.212028 156.928994 757.643368 147.761358 737.007834 176.225245 744.194465 182.880726 742.198928 199.81082 721.782125 207.5117 716.225482 195.165819 694.294048 195.165819 696.279098 176.225245"></polygon>
                <polygon id="Rectangle-45" fill="#FFFFFF" points="855.280395 502 865 508.401259 849.872404 556 829 540.615952 834.082343 520.462172"></polygon>
                <polygon id="Rectangle-46" fill="#FFFFFF" points="1206 257.955715 1230.9145 245 1241 253.821573 1214.61456 268"></polygon>
                <polygon id="Rectangle-47" fill="#FFFFFF" points="1173.04929 299.56852 1186.43904 265 1205 276.626639 1186.43904 312.380243 1151.66598 333 1142 319.193589"></polygon>
                <polygon id="Rectangle-48" fill="#FFFFFF" points="1179 330.284361 1183.35747 328 1199 350.285016 1188.28351 361"></polygon>
                <polygon id="Rectangle-49" fill="#FFFFFF" points="1075.89663 445.073506 1096.74106 423 1110 445.073506 1096.74106 473 1074 465.033023"></polygon>
                <polygon id="Rectangle-53" fill="#FFFFFF" points="1288.98611 592.061616 1295.80639 581 1306.74688 594.881497 1312 634.590668 1288.98611 663 1277.57336 663 1272 645.172147 1300.72048 610.199712"></polygon>
                <g id="Group-5" transform="translate(775.000000, 255.000000)" fill="#00168E">
                    <polygon id="Rectangle-42" points="0.360456136 21.4599293 15.8367492 0.874835943 22.8599785 11.8198659 33.2826369 11.8198659 33.2826369 3.11274919 42.3622457 3.11274919 54 26.5 15.8367492 21.4599293 3.66357525 32.0352573"></polygon>
                    <polygon id="Rectangle-43" points="87.054368 15.4438714 96.4398407 7.22727273 100.610809 13.0761569 93.3399253 25.5220142 101.725255 45.8509817 89.823019 51.2330993"></polygon>
                    <rect id="Rectangle-44" x="120" y="12.0454545" width="11" height="12.0454545"></rect>
                </g>
                <ellipse id="Oval-4" fill="#F5A623" opacity="0.624773551" cx="919" cy="322" rx="44" ry="48"></ellipse>
                <ellipse id="Oval-4" fill="#00B126" opacity="0.483922101" cx="718.5" cy="425" rx="37.5" ry="41"></ellipse>
                <ellipse id="Oval-4" fill="#00B126" opacity="0.478657156" cx="1136" cy="256.5" rx="42" ry="45.5"></ellipse>
                <ellipse id="Oval-4" fill="#7ED321" opacity="0.602411685" cx="962" cy="364" rx="56" ry="61"></ellipse>
                <ellipse id="Oval-4" fill="#BD0FE1" opacity="0.485280797" cx="1023.5" cy="322" rx="70.5" ry="77"></ellipse>
                <ellipse id="Oval-4" fill="#000000" opacity="0.359091938" cx="303.5" cy="345" rx="38.5" ry="42"></ellipse>
                <ellipse id="Oval-4" fill="#4A90E2" opacity="0.542572464" cx="389.5" cy="253" rx="38.5" ry="42"></ellipse>
                <ellipse id="Oval-4" fill="#F8E71C" opacity="0.542572464" cx="508.5" cy="496" rx="38.5" ry="42"></ellipse>
                <ellipse id="Oval-4" fill="#941E1E" opacity="0.542572464" cx="980.5" cy="169" rx="38.5" ry="42"></ellipse>
                <ellipse id="Oval-4" fill="#FF6E6E" opacity="0.485280797" cx="1144.5" cy="454" rx="50.5" ry="55"></ellipse>
            </g>
            <rect id="Rectangle-2" fill="#000000" opacity="0.702332428" x="0" y="0.157303371" width="1312" height="701.842697"></rect>
        </g>
    </g>
</svg>